<svg width="131" height="191" viewBox="0 0 131 191" fill="none" xmlns="http://www.w3.org/2000/svg">
<g clip-path="url(#clip0)">
<path d="M106.514 119.459H48.9656V122.956H106.514V119.459Z" fill="white" stroke="#3F4D90" stroke-width="5" stroke-linejoin="round"/>
<path d="M114.065 111.952C114.065 79.8314 130.042 62.1559 130.042 62.1559H82.5482C82.5482 62.1559 66.5707 79.8314 66.5707 111.952H114.065Z" fill="white" stroke="#D8BAA3" stroke-width="6" stroke-miterlimit="10"/>
<path d="M49.4324 111.952H114.065C114.065 113.943 113.272 115.853 111.862 117.262C110.451 118.67 108.538 119.461 106.543 119.461H41.9113C41.9113 117.469 42.7037 115.559 44.1142 114.151C45.5246 112.743 47.4377 111.952 49.4324 111.952V111.952Z" fill="white" stroke="#D8BAA3" stroke-width="6" stroke-miterlimit="10"/>
<path d="M105.919 189.562C105.731 189.562 105.548 189.497 105.403 189.377C105.258 189.257 105.159 189.091 105.123 188.906L92.4775 122.957H99.7262L106.725 188.667C106.737 188.78 106.725 188.894 106.691 189.002C106.656 189.11 106.598 189.209 106.522 189.294C106.446 189.378 106.353 189.446 106.249 189.492C106.145 189.538 106.033 189.562 105.919 189.562V189.562Z" fill="white" stroke="#3F4D90" stroke-width="5" stroke-linejoin="round"/>
<path d="M49.6793 189.562C49.8677 189.562 50.0502 189.497 50.1955 189.377C50.3408 189.257 50.4398 189.091 50.4754 188.906L63.1209 122.957H55.8736L48.8733 188.667C48.8611 188.78 48.8729 188.894 48.9079 189.002C48.9429 189.11 49.0003 189.209 49.0763 189.294C49.1523 189.378 49.2453 189.446 49.3492 189.492C49.4531 189.538 49.5656 189.562 49.6793 189.562V189.562Z" fill="white" stroke="#3F4D90" stroke-width="5" stroke-linejoin="round"/>
<path d="M35.5892 82.2597C55.0306 86.935 64.7712 81.6675 66.5366 78.4543C66.5366 78.4543 65.5645 72.4217 66.2825 63.0697C67.0006 53.7177 65.4907 32.7724 65.4907 32.7724C61.2065 34.4173 54.937 37.0496 53.0709 42.5324C51.2048 48.0153 50.911 63.0371 50.8003 69.4593C50.8003 69.4593 40.8256 72.8751 36.3569 75.2071C35.8584 75.4666 35.4537 75.8751 35.1992 76.3755C34.9448 76.8759 34.8534 77.4432 34.9378 77.9981L35.5892 82.2597Z" fill="#FFB000"/>
<path d="M54.7767 69.4593C54.7767 69.4593 52.8396 68.6914 48.9896 69.5401" stroke="white" stroke-width="5" stroke-linejoin="round"/>
<path d="M36.6805 78.8369C36.7865 79.4883 36.7085 80.1563 36.4553 80.766C36.2021 81.3756 35.7838 81.9027 35.2472 82.2881L35.0244 82.4454C33.5017 83.4952 30.5813 84.3438 29.8887 84.2971C29.1962 84.2503 24.939 83.464 24.939 83.464C24.939 83.464 24.7871 82.8846 25.4101 82.121C26.0331 81.3573 30.5969 81.9637 28.928 80.2877C28.1858 79.5425 24.4891 81.2241 22.8813 83.0886C21.2735 84.953 20.51 83.4754 20.51 83.4754C20.51 83.4754 22.0497 80.0213 22.5989 79.3965C23.1481 78.7717 26.8207 76.1181 29.3027 75.713C30.4862 75.5203 32.1493 75.6294 33.8012 75.9156C34.5257 76.0433 35.1924 76.3933 35.7084 76.9169C36.2245 77.4404 36.5642 78.1116 36.6805 78.8369V78.8369Z" fill="#C36F0B"/>
<path d="M47.3151 183.444C48.8846 183.09 51.0544 182.331 52.2635 180.731L52.9503 177.032C52.9503 177.032 48.4376 177.545 44.3152 177.151L45.1141 181.992C45.1582 182.234 45.2509 182.465 45.3867 182.671C45.5225 182.876 45.6985 183.052 45.9041 183.188C46.1098 183.323 46.3408 183.416 46.5833 183.46C46.8258 183.504 47.0747 183.499 47.3151 183.444V183.444Z" fill="#C36F0B"/>
<path d="M28.9493 187.974C28.9735 188.249 29.4701 189.561 29.4701 189.561L54.8533 188.702V187.285C54.8533 184.914 54.0459 182.866 53.6187 181.977C52.9603 180.604 52.0464 180.947 52.0464 180.947C52.0464 180.947 49.5644 183.369 46.7801 183.369C46.2437 183.369 45.8592 183.086 45.5839 182.672C45.4197 182.416 45.2917 182.139 45.2035 181.848C45.0879 181.468 45.0062 181.08 44.9595 180.686C44.9386 180.52 44.8778 180.361 44.7822 180.223C44.6866 180.085 44.5591 179.972 44.4105 179.893C44.2619 179.815 44.0966 179.774 43.9285 179.773C43.7605 179.772 43.5947 179.812 43.4453 179.888C42.3526 180.455 41.0258 181.705 37.4724 183.62C37.295 183.716 37.1105 183.814 36.9203 183.915C32.5992 186.184 28.9976 185.34 28.9493 187.974Z" fill="#FFB000"/>
<path d="M31.8067 190.814C31.0717 190.814 30.1748 190.483 29.6937 189.944C29.3945 189.595 29.1794 189.181 29.0651 188.735C28.9507 188.289 28.94 187.824 29.0338 187.373H29.0537C29.1556 187.909 29.4386 188.394 29.8555 188.747C30.2723 189.099 30.7978 189.299 31.3441 189.311L53.3499 188.668C54.0324 188.668 54.6171 188.196 54.8555 187.535V189.011C54.8555 190.01 54.1304 190.819 53.2349 190.819L31.8067 190.814Z" fill="#3F4D79"/>
<path d="M36.5173 184.122C37.8146 184.356 39.0193 184.951 39.993 185.838C40.9667 186.725 41.67 187.869 42.022 189.137L43.0352 189.102C42.714 187.795 42.0673 186.59 41.1551 185.599C40.2429 184.608 39.0947 183.864 37.8172 183.434L37.4738 183.62C37.2964 183.716 37.1119 183.814 36.9218 183.915C36.7874 183.988 36.6526 184.056 36.5173 184.122Z" fill="#3F4D79"/>
<path d="M34.007 185.094V185.225C35.2977 185.227 36.5601 185.604 37.6398 186.31C38.7194 187.016 39.5696 188.021 40.0863 189.202L41.1393 189.167C40.6993 188.006 39.9827 186.97 39.0515 186.148C38.1203 185.327 37.0026 184.744 35.795 184.45C35.2107 184.696 34.6138 184.91 34.007 185.094V185.094Z" fill="#3F4D79"/>
<path d="M78.1547 183.444C79.7242 183.09 81.7506 182.331 82.9597 180.731L83.3641 176.725C83.3641 176.725 79.131 177.095 75.0085 176.699L75.9551 181.992C75.999 182.234 76.0915 182.465 76.2272 182.67C76.3628 182.876 76.5387 183.052 76.7442 183.187C76.9497 183.323 77.1807 183.416 77.4231 183.46C77.6655 183.504 77.9143 183.499 78.1547 183.444V183.444Z" fill="#C36F0B"/>
<path d="M61.2251 187.974C61.2492 188.249 61.7459 189.561 61.7459 189.561L85.6944 188.702V187.285C85.6944 184.914 84.8869 182.866 84.4612 181.977C83.8013 180.604 82.8888 180.661 82.8888 180.661C82.8888 180.661 80.4054 183.369 77.6212 183.369C77.0848 183.369 76.7002 183.086 76.4263 182.672C76.2617 182.417 76.1336 182.139 76.046 181.848C75.9297 181.469 75.848 181.08 75.8019 180.686C75.7808 180.519 75.7198 180.361 75.6241 180.223C75.5284 180.085 75.4008 179.972 75.2521 179.893C75.1034 179.815 74.9379 179.774 74.7698 179.773C74.6017 179.772 74.4359 179.812 74.2864 179.888C73.1937 180.455 73.3015 181.705 69.7453 183.62C69.5679 183.716 69.3834 183.814 69.1933 183.915C64.8736 186.184 61.2719 185.34 61.2251 187.974Z" fill="#FFC033"/>
<path d="M64.081 190.814C63.3459 190.814 62.4491 190.483 61.968 189.945C61.6688 189.595 61.4537 189.181 61.3394 188.735C61.225 188.29 61.2143 187.824 61.3081 187.373H61.328C61.4299 187.909 61.7129 188.394 62.1297 188.747C62.5466 189.099 63.0721 189.299 63.6184 189.311L84.1951 188.668C84.8777 188.668 85.4609 188.196 85.6994 187.535V189.011C85.6994 190.01 84.9742 190.819 84.0788 190.819L64.081 190.814Z" fill="#3F4D79"/>
<path d="M68.7916 184.122C70.0888 184.356 71.2935 184.951 72.2673 185.838C73.241 186.725 73.9443 187.869 74.2962 189.137L75.3095 189.102C74.9883 187.795 74.3416 186.59 73.4294 185.599C72.5171 184.608 71.369 183.864 70.0915 183.435L69.7481 183.62C69.5707 183.716 69.3862 183.814 69.1961 183.915C69.0617 183.988 68.9269 184.056 68.7916 184.122Z" fill="#3F4D79"/>
<path d="M66.2814 185.094V185.225C67.5721 185.227 68.8345 185.604 69.9142 186.31C70.9938 187.016 71.844 188.021 72.3607 189.202L73.4137 189.167C72.9737 188.006 72.2571 186.97 71.3259 186.149C70.3947 185.327 69.277 184.744 68.0694 184.45C67.4851 184.696 66.8882 184.91 66.2814 185.094V185.094Z" fill="#3F4D79"/>
<path d="M84.6711 119.149C84.6711 119.149 94.9169 133.72 85.9241 176.244C85.9241 176.244 81.2113 177.823 73.7001 176.669C73.7001 176.669 63.531 135.321 62.1474 117.405C59.6526 117.331 57.0685 117.286 54.4048 117.286C54.4048 117.286 65.1516 139.216 54.7199 177.019C54.7199 177.019 47.0355 177.568 42.9954 176.992C42.9954 176.992 30.594 115.184 31.3958 109.436C32.3551 102.518 54.1835 93.6844 67.9145 92.4391L98.6462 92.2492C98.6462 92.2492 106.524 100.183 103.236 111.439C100.769 119.884 84.6711 119.149 84.6711 119.149Z" fill="#D8BAA3"/>
<path d="M100.886 95.1649C100.986 95.4657 101.138 95.7464 101.337 95.9937C101.337 95.9937 74.4069 105.146 63.0741 93.632C75.3875 97.9347 95.5939 95.8265 100.886 95.1649Z" fill="#F0E1D4"/>
<path d="M89.5187 25.3203C90.9179 26.4678 108.163 36.4461 110.633 37.8175C113.104 39.1889 99.1075 69.2879 99.5431 80.0269C99.8667 87.9976 102.058 94.9907 102.058 94.9907C102.058 94.9907 77.3529 98.6218 63.074 93.632C63.074 93.632 66.0399 89.2401 64.3924 80.1445C63.057 72.7646 60.3395 52.2783 61.0973 44.3969C61.3726 41.545 61.8664 34.4725 65.4964 32.7724C70.9883 30.1982 74.7772 27.9554 74.7772 27.9554L89.5187 25.3203Z" fill="#FFB000"/>
<path d="M64.391 80.5695C63.0556 73.1896 60.4176 58.58 62.3887 48.6925" stroke="white" stroke-width="5" stroke-linejoin="round"/>
<path d="M110.633 37.8996C117.993 44.37 118.694 71.1056 114.039 75.9778C104.923 85.5182 77.4053 85.4106 77.4053 85.4106C77.4053 85.4106 74.526 84.9954 76.1735 78.3069C76.1735 78.3069 96.5743 68.0213 98.5511 68.0822C98.5511 68.0822 98.2219 49.0013 102.395 43.3003C106.569 37.5993 109.768 37.1388 110.633 37.8996Z" fill="#FFB000"/>
<path d="M100.28 83.1466C89.4774 85.888 77.4053 85.5551 77.4053 85.5551" stroke="white" stroke-width="5" stroke-linecap="round" stroke-linejoin="round"/>
<path d="M76.1736 78.1639C76.1736 78.1639 87.0182 72.086 98.5511 67.9391C98.5511 67.9391 99.0308 53.3182 100.244 49.0283" stroke="white" stroke-width="5" stroke-linejoin="round"/>
<path d="M76.595 78.2049C76.595 78.2049 70.4362 75.8829 68.4452 77.0503C66.2669 78.3254 62.2339 82.4014 61.9983 83.0871C61.7627 83.7728 61.8351 84.4883 61.8777 85.225C61.9203 85.9617 69.2995 85.9489 70.1737 85.8979C71.0478 85.8469 75.8401 86.3641 76.649 85.4871C79.6205 82.2725 76.595 78.2049 76.595 78.2049Z" fill="#C36F0B"/>
<path d="M88.2827 15.6934C88.2827 15.6934 86.6351 19.802 89.5187 25.3273C89.5187 25.3273 85.5637 30.9504 79.3013 30.915C71.2125 30.8711 74.7701 27.9554 74.7701 27.9554C74.7701 27.9554 76.0062 25.9805 75.7635 22.4442L88.2827 15.6934Z" fill="#B65A18"/>
<path d="M87.0183 18.1354C86.8537 18.9033 86.8295 22.2185 85.4573 23.1507C83.6806 24.3578 78.4527 26.2506 74.4991 24.8253C73.9925 24.6426 71.4779 17.2584 71.6425 14.7366C71.8071 12.2148 71.8624 3.2779 77.4607 1.02951C83.059 -1.21888 89.7614 0.0377797 91.6289 6.62144C92.3924 9.31328 91.7623 11.7218 90.7505 13.6358C90.7505 13.6358 91.3976 14.7947 90.3602 15.9494C89.232 17.2089 87.0183 18.1354 87.0183 18.1354Z" fill="#C36F0B"/>
<path d="M90.7533 13.6328C89.4364 12.1466 87.6228 14.7888 87.6228 14.7888L87.5973 14.9305C87.1012 14.6627 86.6791 14.2768 86.3683 13.807C85.6106 12.6623 85.5481 11.3886 85.6489 6.80823C85.6489 6.80823 78.2966 7.5832 72.9651 6.30387C73.7839 4.01864 75.1519 1.95159 77.4636 1.02361C83.0647 -1.22478 89.7656 0.0318822 91.6317 6.61555C92.3952 9.30597 91.7651 11.7187 90.7533 13.6328Z" fill="#722D54"/>
<path d="M81.0056 28.7417C82.0302 28.2671 86.2775 26.7228 89.2789 23.6881C89.2789 23.6881 92.2746 26.5882 92.3015 27.1039C92.3285 27.6196 85.9568 31.9322 84.1631 32.115L81.0056 28.7417Z" fill="#F0E1D4"/>
<path d="M74.7772 26.4126C75.061 26.924 75.7791 28.1311 77.8297 28.6794C77.8297 28.6794 76.3283 31.1275 74.9362 31.8954C74.9362 31.8954 72.6656 30.9037 72.0483 29.6116C71.6396 28.7601 74.7772 26.4126 74.7772 26.4126Z" fill="#F0E1D4"/>
<path d="M77.8297 28.6794L79.3027 30.9079L81.0056 28.7417L82.5666 30.4078C82.5666 30.4078 80.3897 31.4435 76.3226 30.7011L77.8297 28.6794Z" fill="#D8BAA3"/>
<path d="M0 85.5721H77.3089C78.0616 85.5721 78.7835 85.8706 79.3158 86.402C79.8481 86.9334 80.1471 87.6541 80.1471 88.4056V89.1565C80.1471 89.908 79.8481 90.6287 79.3158 91.1601C78.7835 91.6914 78.0616 91.99 77.3089 91.99H0.141908" fill="white"/>
<path d="M0 85.5721H77.3089C78.0616 85.5721 78.7835 85.8706 79.3158 86.402C79.8481 86.9334 80.1471 87.6541 80.1471 88.4056V89.1565C80.1471 89.908 79.8481 90.6287 79.3158 91.1601C78.7835 91.6914 78.0616 91.99 77.3089 91.99H0.141908" stroke="#D8BAA3" stroke-width="6" stroke-miterlimit="10"/>
<path d="M61.015 191V92.092H67.1895V190.997" fill="white"/>
<path d="M61.015 94.0584V92.092H67.1895V98.9278L61.015 94.0584Z" fill="#F0E1D4"/>
<path d="M61.015 190.857V92.092H67.1895V190.854" stroke="#D8BAA3" stroke-width="6" stroke-miterlimit="10"/>
<path d="M63.5509 85.5721H32.639C32.1548 85.572 31.6806 85.4353 31.271 85.1775C30.8615 84.9198 30.5333 84.5517 30.3244 84.1156L20.3327 63.2723C20.2367 63.0723 20.1931 62.8511 20.2059 62.6297C20.2188 62.4082 20.2877 62.1936 20.4062 62.006C20.5247 61.8183 20.689 61.6637 20.8836 61.5566C21.0782 61.4496 21.2968 61.3935 21.519 61.3937H52.4309C52.9151 61.3937 53.3893 61.5305 53.7989 61.7882C54.2084 62.0459 54.5366 62.4141 54.7455 62.8501L64.7372 83.6963C64.8326 83.8962 64.8757 84.117 64.8625 84.3381C64.8493 84.5592 64.7803 84.7733 64.6619 84.9606C64.5434 85.1478 64.3794 85.3021 64.1852 85.409C63.9909 85.516 63.7727 85.572 63.5509 85.5721Z" fill="white" stroke="#3F4D90" stroke-width="5" stroke-miterlimit="10"/>
<path d="M63.5012 85.259H33.0874C32.6342 85.2424 32.1943 85.1024 31.8151 84.8542C31.4359 84.606 31.1319 84.259 30.936 83.8507L26.5369 74.6631L26.6036 74.5469H59.9521L60.0074 74.6616L64.215 83.4455C64.8522 84.4712 64.4364 85.259 63.5012 85.259Z" fill="#F0E1D4"/>
<path d="M60.3111 74.5015L54.6561 84.3593C54.2303 85.1017 53.3292 85.5749 52.3401 85.5749H21.4282C20.4604 85.5749 19.8246 84.7333 20.2418 84.0051L25.6968 74.5015H60.3111Z" fill="white" stroke="#3F4D90" stroke-width="5" stroke-linejoin="round"/>
</g>
<defs>
<clipPath id="clip0">
<rect width="131" height="191" fill="white"/>
</clipPath>
</defs>
</svg>
