<svg width="131" height="191" viewBox="0 0 141 173" fill="none" xmlns="http://www.w3.org/2000/svg">
<path d="M64.8293 101.643H22.0365C21.1468 101.643 20.4255 102.424 20.4255 103.386V108.152C20.4255 109.114 21.1468 109.895 22.0365 109.895H64.8293C65.719 109.895 66.4403 109.114 66.4403 108.152V103.386C66.4403 102.424 65.719 101.643 64.8293 101.643Z" fill="white" stroke="#FE7523" stroke-width="5" stroke-miterlimit="10"/>
<path d="M21.8512 169.068L26.9758 111.379C27.095 110.223 28.6654 110.236 28.7681 111.394L34.4445 169.068" stroke="#3F4D79" stroke-width="6" stroke-miterlimit="10"/>
<path d="M51.1527 169.068L56.2773 111.379C56.3965 110.223 57.9669 110.236 58.0696 111.394L63.746 169.068" stroke="#3F4D79" stroke-width="6" stroke-miterlimit="10"/>
<path d="M52.1699 161.708H62.8707" stroke="#3F4D79" stroke-width="6" stroke-miterlimit="10" stroke-linecap="round"/>
<path d="M33.3181 161.708H22.5273" stroke="#3F4D79" stroke-width="6" stroke-miterlimit="10" stroke-linecap="round"/>
<path d="M90.3098 23.4048L92.1496 24.4343C92.5808 24.6756 92.9057 25.0923 93.0529 25.5927C93.2001 26.0932 93.1575 26.6364 92.9345 27.1028L89.5445 34.1929L84.4576 31.3464L87.8481 24.2552C88.071 23.7899 88.4551 23.4392 88.9165 23.2798C89.3779 23.1204 89.8789 23.1654 90.3098 23.4048Z" fill="#84D7EC" stroke="#3CBFD4" stroke-width="6" stroke-miterlimit="10"/>
<path d="M84.4539 31.3431L89.5453 34.1921L87.2684 38.9541C87.0848 39.3381 86.7677 39.6275 86.3868 39.7586C86.006 39.8897 85.5926 39.8518 85.2376 39.6531L82.8232 38.3021C82.4682 38.1035 82.2007 37.7604 82.0795 37.3484C81.9583 36.9364 81.9934 36.4892 82.177 36.1051L84.4539 31.3431Z" fill="white" stroke="#3CBFD4" stroke-width="6" stroke-miterlimit="10"/>
<path d="M83.4694 33.403L86.1179 32.4506" stroke="#3CBFD4" stroke-width="3" stroke-miterlimit="10"/>
<path d="M82.858 34.6819L87.4638 33.0256" stroke="#3CBFD4" stroke-width="3" stroke-miterlimit="10"/>
<path d="M82.4254 35.9649L88.7424 33.7405" stroke="#3CBFD4" stroke-width="3" stroke-miterlimit="10"/>
<path d="M82.1907 37.2658L88.9084 34.9001" stroke="#3CBFD4" stroke-width="3" stroke-miterlimit="10"/>
<path d="M82.7565 38.2854L88.3948 36.2998" stroke="#3CBFD4" stroke-width="3" stroke-miterlimit="10"/>
<path d="M84.035 39.0003L87.8962 37.6404" stroke="#3CBFD4" stroke-width="3" stroke-miterlimit="10"/>
<path d="M139 8.91939L81.3446 32.5865" stroke="#3F4D79" stroke-width="6" stroke-miterlimit="10"/>
<path d="M119.04 16.7673V167.15" stroke="#3F4D79" stroke-width="6" stroke-miterlimit="10"/>
<path d="M119.04 139.045L133.119 167.15" stroke="#3F4D79" stroke-width="6" stroke-miterlimit="10"/>
<path d="M118.913 139.045L106.101 167.15" stroke="#3F4D79" stroke-width="6" stroke-miterlimit="10"/>
<path d="M134.923 10.5414C134.842 11.9013 129.87 28.0855 109.85 21.5701C91.7892 15.6928 88.4418 29.9847 88.4418 29.9847" stroke="#3F4D79" stroke-width="4" stroke-miterlimit="10"/>
<path d="M129.289 12.9058C125.722 14.3699 108.064 21.6195 119.04 65.1334C129.526 106.712 121.585 126.61 118.913 138.57" stroke="#3F4D79" stroke-width="4" stroke-miterlimit="10"/>
<path d="M119.376 168.433C118.063 169.307 108.131 169.256 106.615 168.433C105.099 167.61 104.82 166.199 104.568 164.341C104.315 162.483 100.889 162.955 100.651 161.761C100.158 159.291 103.072 154.648 103.747 153.58C103.191 155.353 109.642 155.055 110.089 153.907C110.674 156.802 115.045 162.31 117.61 163.348C119.031 163.924 120.689 167.559 119.376 168.433Z" fill="#FFB000"/>
<path d="M100.651 162.447C100.651 162.447 103.519 162.9 104.314 164.48C105.145 166.126 105.101 167.614 106.615 168.433C108.13 169.252 118.443 169.307 119.756 168.433" stroke="#3F4D79" stroke-width="7" stroke-miterlimit="10" stroke-linecap="round"/>
<path d="M110.145 161.284C110.89 160.898 111.699 160.676 112.524 160.628C113.349 160.581 114.174 160.711 114.953 161.009" stroke="#3F4D79" stroke-width="7" stroke-miterlimit="10" stroke-linecap="round"/>
<path d="M109.004 159.088C109.004 159.088 110.393 157.664 113.05 158.676" stroke="#3F4D79" stroke-width="7" stroke-miterlimit="10" stroke-linecap="round"/>
<path d="M108.496 146.007L110.087 153.901C109.642 155.05 104.823 155.822 103.871 154.261C102.489 151.98 99.5219 146.114 99.5219 146.114L108.496 146.007Z" fill="#C36F0B"/>
<path d="M94.9362 94.3155C93.1134 88.9637 56.8075 81.6909 56.8075 81.6909L39.7733 85.9558C39.1467 87.8426 38.0165 99.6426 47.209 104.26C56.9648 109.16 79.428 104.445 79.428 104.445C79.428 104.445 76.9519 121.383 99.1335 146.144H108.901C106.844 132.102 97.5264 101.923 94.9362 94.3155Z" fill="#30456D"/>
<path d="M97.6711 144.599C97.6711 144.599 97.5442 147.242 99.9543 147.653C100.855 147.806 108.911 147.242 109.39 146.83C109.87 146.418 109.01 143.914 109.01 143.914C109.01 143.914 104.533 145.371 97.6711 144.599Z" fill="#485784"/>
<path d="M77.0089 168.433C75.696 169.307 66.3982 169.256 64.8824 168.433C63.3666 167.61 63.7217 166.199 63.4693 164.341C63.2169 162.483 60.2652 160.362 60.0635 159.158C60.0635 159.158 61.0288 154.873 64.1708 152.894C63.6152 154.667 69.5579 155.055 70.0057 153.907C70.6222 157.786 73.1527 163.43 75.4969 164.034C76.9721 164.415 78.3217 167.559 77.0089 168.433Z" fill="#FFB000"/>
<path d="M60.0635 159.295C60.0635 159.295 62.7869 163.264 63.2156 164.48C63.8333 166.233 63.3678 167.614 64.8824 168.433C66.3969 169.252 76.0765 169.307 77.3894 168.433" stroke="#3F4D79" stroke-width="7" stroke-miterlimit="10" stroke-linecap="round"/>
<path d="M68.4126 161.284C68.4126 161.284 70.1821 159.722 72.8395 160.735" stroke="#3F4D79" stroke-width="7" stroke-miterlimit="10" stroke-linecap="round"/>
<path d="M67.271 159.088C67.271 159.088 69.0405 157.527 71.6979 158.539" stroke="#3F4D79" stroke-width="7" stroke-miterlimit="10" stroke-linecap="round"/>
<path d="M71.2031 146.007L70.0031 153.901C69.5579 155.05 64.356 155.437 64.1682 153.574C63.9729 151.612 63.3704 146.114 63.3704 146.114L71.2031 146.007Z" fill="#C36F0B"/>
<path d="M79.3011 97.0806C76.8771 87.3582 47.209 84.6864 47.209 84.6864L21.0559 84.7208C20.4293 86.6076 19.2991 99.6425 28.4916 104.26C38.2461 109.16 58.5542 106.415 58.5542 106.415C58.5542 106.415 54.3238 128.547 62.7655 146.144H74.0966C72.0379 132.102 81.252 104.908 79.3011 97.0806Z" fill="#3F4D79"/>
<path d="M61.6466 143.912C61.6466 143.912 61.0123 147.242 63.4224 147.653C64.323 147.806 73.5207 147.379 74.0001 146.967C74.4796 146.555 74.127 143.502 74.127 143.502C74.127 143.502 68.509 144.685 61.6466 143.912Z" fill="#4E628C"/>
<path d="M56.8112 81.577C56.8112 81.577 55.1089 85.0597 43.9579 84.9047C45.3151 76.3075 47.6681 60.9796 47.6199 55.7458C47.5502 48.3988 47.5108 31.3844 45.7654 28.1871L45.6855 28.0732L52.2511 27.4598C52.3627 28.091 52.4731 28.5438 52.4731 28.5438C52.4731 28.5438 57.8184 41.6282 55.9791 56.211C53.6959 74.3164 56.8112 81.577 56.8112 81.577Z" fill="white"/>
<path d="M39.6833 19.5694C38.288 19.8315 20.8606 25.4357 18.0966 26.679C11.9915 29.4248 4.86018 49.3292 0.487793 59.3823L16.5579 58.4917C16.5579 58.4917 22.266 48.1244 22.6732 48.1244C23.0804 48.1244 23.6131 67.6171 22.3789 71.6241C21.1447 75.631 16.823 82.7543 16.4793 85.3465C16.4793 85.3465 23.3391 90.8355 43.0244 91.0592C43.0244 91.0592 47.6885 63.086 47.62 55.739C47.5515 48.392 47.5109 31.3789 45.7655 28.1816L39.6833 19.5694Z" fill="#DAF3F9"/>
<path d="M52.7065 23.6957C53.1974 23.6134 54.2046 25.8048 60.7207 28.0306C67.2368 30.2564 76.4965 57.7136 76.4965 57.7136L62.8834 61.9868C62.8834 61.9868 61.2001 68.5598 66.2131 83.7712C66.2131 83.7712 58.393 82.7681 56.8163 81.9516C56.8163 81.9516 53.701 74.3164 55.9842 56.211C57.8184 41.6282 52.4731 28.5425 52.4731 28.5425C52.4731 28.5425 51.3455 23.9235 52.7065 23.6957Z" fill="#DAF3F9"/>
<path d="M62.7781 39.4573C62.7781 39.4573 65.2503 47.2503 62.7781 61.8249" stroke="#AEE5F2" stroke-width="4" stroke-miterlimit="10"/>
<path d="M41.5365 18.8503C41.5365 18.8503 41.1724 16.5175 41.7204 15.6942C42.2684 14.8708 47.223 15.5761 47.223 15.5761C47.223 15.5761 43.958 18.016 41.5365 18.8503Z" fill="#AEE5F2"/>
<path d="M55.1193 29.7994L52.25 27.081C52.25 27.081 52.023 22.5636 52.7067 23.6957C53.5527 25.0968 56.167 26.056 56.167 26.056L55.1193 29.7994Z" fill="white"/>
<path d="M54.9872 29.7994L52.1179 27.081" stroke="#AEE5F2" stroke-width="4" stroke-miterlimit="10"/>
<path d="M41.7204 15.6928C41.0354 16.5669 41.3094 23.1784 45.6615 28.0745L41.5847 30.6653C41.5847 30.6653 34.1832 21.3986 35.1358 20.5615C38.2232 17.8458 41.7204 15.6928 41.7204 15.6928Z" fill="white"/>
<path d="M45.6616 28.2173L41.5847 30.8067" stroke="#AEE5F2" stroke-width="4" stroke-miterlimit="10"/>
<path d="M66.1814 67.908C66.1814 67.908 59.3634 65.3186 63.3806 58.2337C66.2296 53.2154 75.5109 53.2044 76.9329 57.6244C78.0098 60.9809 75.034 68.2854 66.1814 67.908Z" fill="#AEE5F2"/>
<path d="M69.6277 59.8694C66.1636 60.8821 63.3476 65.8757 65.2059 67.4168C68.5584 70.1901 75.9231 70.9846 87.4623 64.0973C91.033 61.9607 84.9431 57.634 84.9431 57.634L69.6277 59.8694Z" fill="#FAB6AD"/>
<path d="M39.549 95.4064C29.2744 98.955 18.2223 92.5727 14.8508 81.1529C11.4792 69.7331 17.068 57.597 27.3362 54.0484C31.3138 52.6722 35.599 52.7464 39.5338 54.2597C44.0875 55.9942 49.013 54.9897 52.7181 51.7526C54.1204 50.5297 55.7204 49.599 57.4368 49.0081C65.2911 46.2938 72.5962 51.5742 75.175 60.3085C77.7538 69.0429 74.6321 77.9254 66.7778 80.6397C65.062 81.2348 63.2589 81.4795 61.4604 81.3615C56.7075 81.0473 52.1537 83.3183 49.3745 87.5874C46.9786 91.2868 43.5269 94.0337 39.549 95.4064V95.4064Z" fill="white" stroke="#3CBFD4" stroke-width="6" stroke-miterlimit="10"/>
<path d="M47.142 76.0262C50.4788 76.0262 53.1837 73.1 53.1837 69.4902C53.1837 65.8805 50.4788 62.9542 47.142 62.9542C43.8053 62.9542 41.1003 65.8805 41.1003 69.4902C41.1003 73.1 43.8053 76.0262 47.142 76.0262Z" fill="#3CBFD4"/>
<path d="M35.328 68.4126L34.1303 68.9006C33.8248 69.0251 33.6704 69.394 33.7855 69.7245L37.2557 79.6909C37.3707 80.0214 37.7117 80.1884 38.0172 80.0639L39.2149 79.5758C39.5204 79.4513 39.6748 79.0825 39.5597 78.752L36.0896 68.7856C35.9745 68.4551 35.6335 68.2881 35.328 68.4126Z" fill="#3CBFD4"/>
<path d="M101.267 49.8493L56.8798 70.7074C56.1797 71.0477 55.1522 71.1547 54.7602 70.0281L52.6229 63.8942C52.2309 62.7676 52.8677 62.3847 53.6009 62.1446L99.8782 45.8615L101.267 49.8493Z" fill="#FFB000"/>
<path d="M34.3418 73.3682C33.9498 72.2429 34.4686 71.0024 35.4834 70.6429L99.9542 46.8441" stroke="white" stroke-width="3" stroke-miterlimit="10"/>
<path d="M35.0902 75.5171C34.697 74.3905 35.2171 73.15 36.2319 72.7905L100.251 47.7278" stroke="white" stroke-width="3" stroke-miterlimit="10"/>
<path d="M35.3021 76.1264C35.6941 77.253 36.8433 77.8115 37.8276 77.3614L100.776 49.2304" stroke="white" stroke-width="3" stroke-miterlimit="10"/>
<path d="M34.5106 73.8526C34.9026 74.9792 36.0505 75.5377 37.0349 75.0876L100.469 48.3398" stroke="white" stroke-width="3" stroke-miterlimit="10"/>
<path d="M116.682 43.6564L101.655 51.7526C101.521 51.8251 101.372 51.8626 101.222 51.862C101.071 51.8614 100.923 51.8227 100.789 51.7491C100.655 51.6756 100.538 51.5691 100.449 51.4381C100.36 51.3072 100.3 51.1555 100.274 50.9951L99.2669 44.6375C99.2254 44.3728 99.2796 44.1008 99.4185 43.8783C99.5574 43.6557 99.7703 43.4995 100.013 43.4423L110.819 40.8954C111.343 40.7721 111.888 40.8101 112.393 41.0052L116.627 42.6423C116.722 42.6776 116.806 42.7429 116.867 42.8296C116.927 42.9164 116.963 43.0208 116.969 43.1295C116.975 43.2383 116.95 43.3464 116.899 43.4402C116.848 43.534 116.772 43.6093 116.682 43.6564V43.6564Z" fill="white" stroke="#3CBFD4" stroke-width="6" stroke-miterlimit="10"/>
<path d="M102.436 41.6042C102.951 41.2978 103.273 40.8642 103.157 40.6359C103.041 40.4075 102.529 40.4708 102.015 40.7773C101.501 41.0837 101.178 41.5173 101.295 41.7456C101.411 41.974 101.922 41.9107 102.436 41.6042Z" fill="white" stroke="#FE7523" stroke-width="5" stroke-miterlimit="10"/>
<path d="M106.179 40.6799C106.674 40.3387 106.971 39.8839 106.841 39.664C106.712 39.4441 106.205 39.5424 105.71 39.8835C105.215 40.2247 104.919 40.6795 105.048 40.8994C105.178 41.1193 105.684 41.021 106.179 40.6799Z" fill="white" stroke="#FE7523" stroke-width="5" stroke-miterlimit="10"/>
<path d="M109.756 39.7666C110.251 39.4255 110.548 38.9706 110.418 38.7507C110.289 38.5308 109.782 38.6291 109.287 38.9703C108.792 39.3114 108.496 39.7662 108.625 39.9861C108.754 40.206 109.261 40.1077 109.756 39.7666Z" fill="white" stroke="#FE7523" stroke-width="5" stroke-miterlimit="10"/>
<path d="M105.285 51.5372C105.778 51.1943 106.072 50.7387 105.942 50.5197C105.812 50.3008 105.307 50.4012 104.814 50.7442C104.32 51.0871 104.026 51.5427 104.156 51.7617C104.286 51.9807 104.792 51.8802 105.285 51.5372Z" fill="white" stroke="#FE7523" stroke-width="4.993" stroke-miterlimit="10"/>
<path d="M109.229 50.0211C109.724 49.68 110.02 49.2252 109.891 49.0053C109.761 48.7854 109.255 48.8837 108.76 49.2248C108.265 49.5659 107.968 50.0208 108.098 50.2407C108.227 50.4606 108.733 50.3623 109.229 50.0211Z" fill="white" stroke="#FE7523" stroke-width="5" stroke-miterlimit="10"/>
<path d="M113.355 47.7947C113.85 47.4535 114.146 46.9987 114.017 46.7788C113.887 46.5589 113.381 46.6572 112.886 46.9983C112.391 47.3395 112.094 47.7943 112.224 48.0142C112.353 48.2341 112.859 48.1358 113.355 47.7947Z" fill="white" stroke="#FE7523" stroke-width="5" stroke-miterlimit="10"/>
<path d="M87.4624 64.0932C88.7004 63.4071 92.3777 58.2296 92.691 56.8436C93.0043 55.4577 93.0804 50.0291 92.9294 49.5831C92.7785 49.1371 91.2652 47.957 91.2652 47.957C91.2652 47.957 89.8357 47.3312 88.6446 47.2503C88.6446 47.2503 88.2843 48.4963 89.483 49.3086C89.483 49.3086 89.9765 52.7063 89.5604 53.0137C89.034 53.4034 88.6179 51.1543 88.2209 50.0387C87.9672 49.3526 86.2167 50.261 86.199 50.7152C86.184 50.9517 86.1981 51.1894 86.2408 51.4219C86.2408 51.4219 85.1994 51.8898 84.9343 52.4127C84.6692 52.9355 83.9195 59.1998 84.8328 61.1058C85.7461 63.0119 87.4624 64.0932 87.4624 64.0932Z" fill="#FFCFC9"/>
<path d="M86.1622 51.7498C86.1863 52.1094 86.5136 53.6916 86.5136 53.6916" stroke="#FAB6AD" stroke-width="3" stroke-miterlimit="10" stroke-linecap="round"/>
<path d="M91.0103 48.1395C91.6026 48.4139 91.7891 52.1986 91.7891 52.1986" stroke="#FAB6AD" stroke-width="3" stroke-miterlimit="10" stroke-linecap="round"/>
<path d="M17.1465 57.3418C13.0646 56.7805 9.03849 57.5792 5.40435 61.0647C4.84369 61.6026 2.24715 64.9701 3.8619 67.7214C3.79848 67.8367 3.73505 67.9519 3.67671 68.07C3.67671 68.07 -2.74298 63.0956 1.38333 57.1606C4.65596 52.4538 13.5009 53.306 16.0772 55.3163C16.87 55.9283 17.0869 56.8711 17.1465 57.3418Z" fill="#AEE5F2"/>
<path d="M5.40309 61.0647C4.51516 61.9113 -1.41236 69.7825 12.0156 71.2014C25.4435 72.6203 38.9945 71.3565 39.5869 71.6309C40.1792 71.9054 44.3931 74.4015 45.8873 74.1682C47.3816 73.9349 52.1966 72.6587 52.3565 72.0289C52.5163 71.399 54.2275 65.0744 54.2275 65.0744C54.2275 65.0744 52.6774 64.5255 51.726 66.3327C50.6491 68.376 46.8387 69.3695 45.5271 68.376C44.2155 67.3825 47.7114 67.1341 48.4598 66.4919C49.2081 65.8497 49.2678 65.4435 49.2678 65.4435C49.2678 65.4435 46.5723 64.8383 45.5892 64.4678C44.6062 64.0973 40.183 66.5756 39.8203 66.496C31.0184 64.5803 16.4095 50.519 5.40309 61.0647Z" fill="#FFCFC9"/>
<path d="M41.5859 18.8832C48.7489 15.9906 51.1603 10.9489 51.1603 10.9489L53.1784 23.1386C53.1784 23.1386 51.8186 23.977 52.2778 27.457C52.6862 30.5501 47.8623 30.373 45.144 27.5188C42.0121 24.2295 41.5859 18.8832 41.5859 18.8832Z" fill="#FFCFC9"/>
<path d="M53.1783 23.1386C53.1783 23.1386 51.8185 23.977 52.2777 27.457C52.3117 27.6447 52.3099 27.8379 52.2724 28.0248C52.2348 28.2117 52.1624 28.3883 52.0595 28.5439C49.9032 27.3184 47.54 24.069 48.0157 19.3498C48.2503 17.0294 51.1259 14.4825 51.7018 13.9747L53.1783 23.1386Z" fill="#FAB6AD"/>
<path d="M51.0651 14.1188C50.4905 14.6265 48.7578 17.0952 49.2741 18.5868C50.1328 21.0569 54.6016 26.62 56.3774 25.9434C57.1385 25.6539 61.6327 21.4809 63.1003 18.9752C63.6483 18.0434 66.1941 11.9466 64.8761 10.7801C63.2829 9.37085 57.5711 8.37049 51.0651 14.1188Z" fill="#FFCFC9"/>
<path d="M47.0961 15.5748C47.8711 16.0839 50.1302 14.7404 53.6921 13.0375C59.2872 10.3657 66.7572 7.8559 65.1501 13.7318C65.1501 13.7318 66.156 11.8107 66.1572 9.61512C66.1572 6.98178 64.2939 5.3392 62.9861 3.2479C61.3751 0.669458 59.8504 -0.453037 53.5487 0.167217C47.247 0.787471 44.19 3.01874 44.8496 6.05689C45.5092 9.09503 47.7937 10.6841 47.7937 10.6841C47.7937 10.6841 45.631 14.6169 47.0961 15.5748Z" fill="#3F4D79"/>
<path d="M47.6758 10.5414C48.6157 8.67101 49.5683 7.74063 49.5683 7.74063" stroke="white" stroke-width="3" stroke-miterlimit="10"/>
</svg>
