<svg width="40" height="40" viewBox="0 0 40 40" fill="none" xmlns="http://www.w3.org/2000/svg">
<g clip-path="url(#clip0)" filter="url(#filter0_d)">
<path d="M18.9333 4.21587L17.2064 4.7746L15.7841 2.13333L16.8 1.42222L17.3587 1.87936L17.1048 0.355556L19.4413 0L19.5937 1.21905L20 0.863492V4.21587H18.9333Z" fill="#4DC430"/>
<path d="M21.0667 4.21587L22.7937 4.7746L24.2159 2.13333L23.2 1.42222L22.6413 1.87936L22.8952 0.355556L20.5587 0L20.4063 1.21905L20 0.863492V4.21587H21.0667Z" fill="#3AAD1A"/>
<path d="M20 32C28.0511 32 34.5778 25.4733 34.5778 17.4222C34.5778 9.37114 28.0511 2.84445 20 2.84445C11.9489 2.84445 5.42222 9.37114 5.42222 17.4222C5.42222 25.4733 11.9489 32 20 32Z" fill="#F3663A"/>
<g clip-path="url(#clip1)">
<path d="M20.0817 2.69538C11.8547 2.65967 5.13208 9.09799 5.09583 17.0474C5.05958 24.9969 11.7233 31.4933 19.9502 31.529C28.1772 31.5647 34.8998 25.1264 34.9361 17.177C34.9723 9.22752 28.3093 2.73109 20.0817 2.69538ZM19.9561 30.2424C12.4634 30.2099 6.39433 24.2931 6.42734 17.0532C6.46035 9.8133 12.5832 3.94945 20.0758 3.98197C27.5685 4.01449 33.6376 9.93127 33.6046 17.1712C33.5716 24.4111 27.4487 30.2749 19.9561 30.2424Z" fill="white"/>
<path d="M20.0574 8.03127C19.6892 8.02967 19.3903 8.31588 19.3887 8.67168L19.3502 17.1094C19.3486 17.4651 19.6448 17.754 20.013 17.7556C20.3812 17.7572 20.6801 17.471 20.6817 17.1152L20.7202 8.67738C20.7217 8.32166 20.4255 8.03287 20.0574 8.03127Z" fill="white"/>
</g>
<g clip-path="url(#clip2)">
<path d="M34.5024 14.2726C32.8821 6.40269 25.0869 1.37518 17.1255 3.0655C9.16417 4.75581 4.00526 12.5337 5.62549 20.4036C7.24571 28.2735 15.041 33.301 23.0023 31.6107C30.9637 29.9204 36.1227 22.1432 34.5024 14.2726ZM6.91401 20.13C5.43839 12.9625 10.137 5.87866 17.3878 4.33922C24.6385 2.79977 31.7382 7.37869 33.2138 14.5462C34.6894 21.7137 29.9908 28.7975 22.7401 30.337C15.4893 31.8764 8.38962 27.2975 6.91401 20.13Z" fill="white"/>
<path d="M29.1585 15.4072C29.086 15.055 28.7394 14.8315 28.3831 14.9071L19.9327 16.7012C19.5765 16.7769 19.3471 17.1227 19.4196 17.4749C19.4921 17.8271 19.8386 18.0506 20.195 17.975L28.6454 16.1808C29.0016 16.1051 29.231 15.7593 29.1585 15.4072Z" fill="white"/>
</g>
</g>
<defs>
<filter id="filter0_d" x="0" y="0" width="40" height="40" filterUnits="userSpaceOnUse" color-interpolation-filters="sRGB">
<feFlood flood-opacity="0" result="BackgroundImageFix"/>
<feColorMatrix in="SourceAlpha" type="matrix" values="0 0 0 0 0 0 0 0 0 0 0 0 0 0 0 0 0 0 127 0"/>
<feOffset dy="4"/>
<feGaussianBlur stdDeviation="2"/>
<feColorMatrix type="matrix" values="0 0 0 0 0 0 0 0 0 0 0 0 0 0 0 0 0 0 0.25 0"/>
<feBlend mode="normal" in2="BackgroundImageFix" result="effect1_dropShadow"/>
<feBlend mode="normal" in="SourceGraphic" in2="effect1_dropShadow" result="shape"/>
</filter>
<clipPath id="clip0">
<rect width="32" height="32" fill="white" transform="translate(4)"/>
</clipPath>
<clipPath id="clip1">
<rect width="29.8404" height="28.8338" fill="white" transform="matrix(0.999991 0.00434067 -0.00455963 0.99999 5.16157 2.63062)"/>
</clipPath>
<clipPath id="clip2">
<rect width="29.1438" height="29.5205" fill="white" transform="matrix(0.201647 0.979458 -0.978196 0.207686 31.564 0)"/>
</clipPath>
</defs>
</svg>
